0
SECTION
2
HEADER
9
$INSUNITS
70
4
9
$ACADVER
1
AC1014
9
$HANDSEED
5
FFFF
0
ENDSEC
0
SECTION
2
TABLES
0
TABLE
2
VPORT
5
8
100
AcDbSymbolTable
0
ENDTAB
0
TABLE
2
LTYPE
5
5
100
AcDbSymbolTable
0
LTYPE
5
14
100
AcDbSymbolTableRecord
100
AcDbLinetypeTableRecord
2
BYBLOCK
70
0
0
LTYPE
5
15
100
AcDbSymbolTableRecord
100
AcDbLinetypeTableRecord
2
BYLAYER
70
0
0
ENDTAB
0
TABLE
2
LAYER
5
2
100
AcDbSymbolTable
70
2
0
LAYER
5
50
100
AcDbSymbolTableRecord
100
AcDbLayerTableRecord
2
0
70
0
6
CONTINUOUS
0
ENDTAB
0
TABLE
2
STYLE
5
3
100
AcDbSymbolTable
70
1
0
STYLE
5
11
100
AcDbSymbolTableRecord
100
AcDbTextStyleTableRecord
2
STANDARD
70
0
0
ENDTAB
0
TABLE
2
VIEW
5
6
100
AcDbSymbolTable
70
0
0
ENDTAB
0
TABLE
2
UCS
5
7
100
AcDbSymbolTable
70
0
0
ENDTAB
0
TABLE
2
APPID
5
9
100
AcDbSymbolTable
70
2
0
APPID
5
12
100
AcDbSymbolTableRecord
100
AcDbRegAppTableRecord
2
ACAD
70
0
0
ENDTAB
0
TABLE
2
DIMSTYLE
5
A
100
AcDbSymbolTable
70
1
0
ENDTAB
0
TABLE
2
BLOCK_RECORD
5
1
100
AcDbSymbolTable
70
1
0
BLOCK_RECORD
5
1F
100
AcDbSymbolTableRecord
100
AcDbBlockTableRecord
2
*MODEL_SPACE
0
BLOCK_RECORD
5
1B
100
AcDbSymbolTableRecord
100
AcDbBlockTableRecord
2
*PAPER_SPACE
0
ENDTAB
0
ENDSEC
0
SECTION
2
BLOCKS
0
BLOCK
5
20
100
AcDbEntity
100
AcDbBlockBegin
2
*MODEL_SPACE
0
ENDBLK
5
21
100
AcDbEntity
100
AcDbBlockEnd
0
BLOCK
5
1C
100
AcDbEntity
100
AcDbBlockBegin
2
*PAPER_SPACE
0
ENDBLK
5
1D
100
AcDbEntity
100
AcDbBlockEnd
0
ENDSEC
0
SECTION
2
ENTITIES
0
LINE
5
100
100
AcDbEntity
8
0
100
AcDbLine
10
15.696225071827223
20
15.379956476861413
30
0
11
18.728415002358847
21
15.379956476861413
31
0
0
LINE
5
101
100
AcDbEntity
8
0
100
AcDbLine
10
18.728415002358847
20
15.379956476861413
30
0
11
18.728415002358847
21
14.500000216066837
31
0
0
LINE
5
102
100
AcDbEntity
8
0
100
AcDbLine
10
18.728415002358847
20
14.500000216066837
30
0
11
7.500000111758709
21
14.500000216066837
31
0
0
LINE
5
103
100
AcDbEntity
8
0
100
AcDbLine
10
7.500000111758709
20
14.500000216066837
30
0
11
7.500000111758709
21
14.939978346464125
31
0
0
LINE
5
104
100
AcDbEntity
8
0
100
AcDbLine
10
7.500000111758709
20
14.939978346464125
30
0
11
7.500000111758709
21
15.293835326355749
31
0
0
LINE
5
105
100
AcDbEntity
8
0
100
AcDbLine
10
7.500000111758709
20
15.293835326355749
30
0
11
11.500000171363354
21
15.293835326355749
31
0
0
LINE
5
106
100
AcDbEntity
8
0
100
AcDbLine
10
11.500000171363354
20
15.293835326355749
30
0
11
12.000000178813934
21
17.00000025331974
31
0
0
SPLINE
5
107
100
AcDbEntity
8
0
100
AcDbSpline
70
4
71
5
72
36
73
30
74
0
42
0.000000001
43
0.0000000001
44
0.0000000001
40
0
40
0
40
0
40
0
40
0
40
0
40
0.040000000000000001
40
0.080000000000000002
40
0.12
40
0.16
40
0.20000000000000001
40
0.24000000000000002
40
0.28000000000000003
40
0.32000000000000001
40
0.35999999999999999
40
0.39999999999999997
40
0.43999999999999995
40
0.47999999999999993
40
0.51999999999999991
40
0.55999999999999994
40
0.59999999999999998
40
0.64000000000000001
40
0.68000000000000005
40
0.72000000000000008
40
0.76000000000000012
40
0.80000000000000016
40
0.84000000000000019
40
0.88000000000000023
40
0.92000000000000026
40
0.9600000000000003
40
1
40
1
40
1
40
1
40
1
40
1
41
1
41
1
41
1
41
1
41
1
41
1
41
1
41
1
41
1
41
1
41
1
41
1
41
1
41
1
41
1
41
1
41
1
41
1
41
1
41
1
41
1
41
1
41
1
41
1
41
1
41
1
41
1
41
1
41
1
41
1
10
12.000000178813934
20
17.00000025331974
30
0
10
12.023219872060512
20
17.11152118543508
30
0
10
12.07061209702462
20
17.335137652235652
30
0
10
12.144559189257407
20
17.672285941890753
30
0
10
12.248885668603309
20
18.125275048759232
30
0
10
12.388637335622391
20
18.69774326270673
30
0
10
12.536918156785807
20
19.277795215154313
30
0
10
12.692044105926767
20
19.868011372719462
30
0
10
12.850917765684784
20
20.47279708178764
30
0
10
13.009823091932432
20
21.097777152812785
30
0
10
13.165800234556988
20
21.748670193640042
30
0
10
13.317833197464662
20
22.430328935114598
30
0
10
13.46814572757123
20
23.145686260658628
30
0
10
13.623449105964182
20
23.89473121048556
30
0
10
13.792732687612057
20
24.674681848928657
30
0
10
13.985186561038102
20
25.480140756641788
30
0
10
14.207942527402665
20
26.30315912772322
30
0
10
14.464176751267942
20
27.133424745631469
30
0
10
14.75024217544423
20
27.95804950223345
30
0
10
15.056235195785971
20
28.762760827649572
30
0
10
15.369772604989908
20
29.534433258230433
30
0
10
15.678801627854892
20
30.263224640700471
30
0
10
15.974877305178872
20
30.94499828327308
30
0
10
16.256078377225208
20
31.583505300855094
30
0
10
16.530657647822814
20
32.193282831245199
30
0
10
16.813099802823427
20
32.794991102771235
30
0
10
17.058189205793713
20
33.287023509828856
30
0
10
17.258734992330915
20
33.669719539557789
30
0
10
17.400657567730807
20
33.931918661538347
30
0
10
17.473675261781583
20
34.06478539560473
30
0
0
SPLINE
5
108
100
AcDbEntity
8
0
100
AcDbSpline
70
4
71
5
72
46
73
40
74
0
42
0.000000001
43
0.0000000001
44
0.0000000001
40
0
40
0
40
0
40
0
40
0
40
0
40
0.028571428571428571
40
0.057142857142857141
40
0.085714285714285715
40
0.11428571428571428
40
0.14285714285714285
40
0.17142857142857143
40
0.20000000000000001
40
0.22857142857142859
40
0.25714285714285717
40
0.28571428571428575
40
0.31428571428571433
40
0.34285714285714292
40
0.3714285714285715
40
0.40000000000000008
40
0.42857142857142866
40
0.45714285714285724
40
0.48571428571428582
40
0.51428571428571435
40
0.54285714285714293
40
0.57142857142857151
40
0.60000000000000009
40
0.62857142857142867
40
0.65714285714285725
40
0.68571428571428583
40
0.71428571428571441
40
0.74285714285714299
40
0.77142857142857157
40
0.80000000000000016
40
0.82857142857142874
40
0.85714285714285732
40
0.8857142857142859
40
0.91428571428571448
40
0.94285714285714306
40
0.97142857142857164
40
1
40
1
40
1
40
1
40
1
40
1
41
1
41
1
41
1
41
1
41
1
41
1
41
1
41
1
41
1
41
1
41
1
41
1
41
1
41
1
41
1
41
1
41
1
41
1
41
1
41
1
41
1
41
1
41
1
41
1
41
1
41
1
41
1
41
1
41
1
41
1
41
1
41
1
41
1
41
1
41
1
41
1
41
1
41
1
41
1
41
1
10
19.773732513801768
20
32.536181760044443
30
0
10
19.736721859200482
20
32.457901190064817
30
0
10
19.663111200259738
20
32.305434396413865
30
0
10
19.553926758191537
20
32.089014646011265
30
0
10
19.410190621551237
20
31.819468118596156
30
0
10
19.230456108007413
20
31.48414464621354
30
0
10
19.047539443273184
20
31.116224999818392
30
0
10
18.859760962249876
20
30.68826749318616
30
0
10
18.66875155031877
20
30.1933519903092
30
0
10
18.478752785842222
20
29.642477480185008
30
0
10
18.295130876548605
20
29.05692336536211
30
0
10
18.123128798521094
20
28.462237141732636
30
0
10
17.966589540023485
20
27.881849761847036
30
0
10
17.826518321993259
20
27.330211429304061
30
0
10
17.700204244336462
20
26.808037430685523
30
0
10
17.582940962433749
20
26.307560620229467
30
0
10
17.469358211007812
20
25.816290519581905
30
0
10
17.354914719571362
20
25.32135965886356
30
0
10
17.237285651189524
20
24.813518426486354
30
0
10
17.117908740804285
20
24.291538546669148
30
0
10
17.000648813218728
20
23.759723569345468
30
0
10
16.890380666390726
20
23.225214424320818
30
0
10
16.791541013403645
20
22.69526068250272
30
0
10
16.70684705958552
20
22.174804087771957
30
0
10
16.635544670087395
20
21.663180517072629
30
0
10
16.573878222090247
20
21.155026800390814
30
0
10
16.516590703746285
20
20.643132173573715
30
0
10
16.458140183656937
20
20.120776977687459
30
0
10
16.393912692608527
20
19.584027123174444
30
0
10
16.321727321643639
20
19.034689781541999
30
0
10
16.242091162595543
20
18.480527851192356
30
0
10
16.157179479241513
20
17.932694135554897
30
0
10
16.070162844757068
20
17.403911599593709
30
0
10
15.984423389362185
20
16.906429305779316
30
0
10
15.902765411637684
20
16.449909041977811
30
0
10
15.826794369272983
20
16.039819967428127
30
0
10
15.771204985022361
20
15.750993922188862
30
0
10
15.732539366064328
20
15.556774711128405
30
0
10
15.708105912022582
20
15.437238684547356
30
0
10
15.696225071827223
20
15.379956476861413
30
0
0
SPLINE
5
109
100
AcDbEntity
8
0
100
AcDbSpline
70
4
71
5
72
66
73
60
74
0
42
0.000000001
43
0.0000000001
44
0.0000000001
40
0
40
0
40
0
40
0
40
0
40
0
40
0.018181818181818181
40
0.036363636363636362
40
0.054545454545454543
40
0.072727272727272724
40
0.090909090909090912
40
0.1090909090909091
40
0.12727272727272729
40
0.14545454545454548
40
0.16363636363636366
40
0.18181818181818185
40
0.20000000000000004
40
0.21818181818181823
40
0.23636363636363641
40
0.25454545454545457
40
0.27272727272727276
40
0.29090909090909095
40
0.30909090909090914
40
0.32727272727272733
40
0.34545454545454551
40
0.3636363636363637
40
0.38181818181818189
40
0.40000000000000008
40
0.41818181818181827
40
0.43636363636363645
40
0.45454545454545464
40
0.47272727272727283
40
0.49090909090909102
40
0.50909090909090915
40
0.52727272727272734
40
0.54545454545454553
40
0.56363636363636371
40
0.5818181818181819
40
0.60000000000000009
40
0.61818181818181828
40
0.63636363636363646
40
0.65454545454545465
40
0.67272727272727284
40
0.69090909090909103
40
0.70909090909090922
40
0.7272727272727274
40
0.74545454545454559
40
0.76363636363636378
40
0.78181818181818197
40
0.80000000000000016
40
0.81818181818181834
40
0.83636363636363653
40
0.85454545454545472
40
0.87272727272727291
40
0.89090909090909109
40
0.90909090909090928
40
0.92727272727272747
40
0.94545454545454566
40
0.96363636363636385
40
0.98181818181818203
40
1
40
1
40
1
40
1
40
1
40
1
41
1
41
1
41
1
41
1
41
1
41
1
41
1
41
1
41
1
41
1
41
1
41
1
41
1
41
1
41
1
41
1
41
1
41
1
41
1
41
1
41
1
41
1
41
1
41
1
41
1
41
1
41
1
41
1
41
1
41
1
41
1
41
1
41
1
41
1
41
1
41
1
41
1
41
1
41
1
41
1
41
1
41
1
41
1
41
1
41
1
41
1
41
1
41
1
41
1
41
1
41
1
41
1
41
1
41
1
41
1
41
1
41
1
41
1
41
1
41
1
10
23.96140558288652
20
34.229772968926007
30
0
10
24.000887174683104
20
34.171516125234653
30
0
10
24.078717075104773
20
34.057037584875317
30
0
10
24.192062373376402
20
33.891423725648629
30
0
10
24.337148211968973
20
33.67782920683095
30
0
10
24.512467572387592
20
33.394827767303113
30
0
10
24.686193716786878
20
33.061848445572394
30
0
10
24.861600339361694
20
32.647978020171841
30
0
10
25.038891748223126
20
32.135895722586199
30
0
10
25.214252718778326
20
31.527681320072713
30
0
10
25.381270863685291
20
30.838797988612455
30
0
10
25.531896873893999
20
30.094380677018609
30
0
10
25.657584946844256
20
29.324630620729152
30
0
10
25.75035252293409
20
28.560617745370116
30
0
10
25.8038806265909
20
27.829889485162674
30
0
10
25.814589019301483
20
27.15221305801289
30
0
10
25.782755476478091
20
26.535114240748786
30
0
10
25.713549293170836
20
25.969840541255177
30
0
10
25.615520036323556
20
25.438909363431847
30
0
10
25.499167883424345
20
24.923409082286852
30
0
10
25.375499421583456
20
24.410117640864989
30
0
10
25.254568992134217
20
23.89931016329168
30
0
10
25.144079155676341
20
23.410891480139728
30
0
10
25.047821654299401
20
22.994699637482924
30
0
10
24.964588519339763
20
22.727587245628207
30
0
10
24.887834344523302
20
22.679916127549873
30
0
10
24.805465742146158
20
22.89085402719018
30
0
10
24.698868754057713
20
23.334211964271368
30
0
10
24.547697554249922
20
23.933009215424697
30
0
10
24.336310960438713
20
24.585516288301893
30
0
10
24.059250186678227
20
25.1866701715145
30
0
10
23.728038875787373
20
25.652929203363719
30
0
10
23.375362921872384
20
25.942143886136733
30
0
10
23.065507896077282
20
26.084273636903355
30
0
10
22.884548026803234
20
26.177706900623612
30
0
10
22.896145121613007
20
26.327340350206466
30
0
10
23.105247319928452
20
26.596148363864344
30
0
10
23.418156003690235
20
26.950707243452502
30
0
10
23.694024889903229
20
27.302836272099889
30
0
10
23.800334424855748
20
27.55364293871866
30
0
10
23.65990426352624
20
27.632031227603107
30
0
10
23.31885683147906
20
27.547048451532447
30
0
10
22.920112367810649
20
27.377983484436001
30
0
10
22.618352440860615
20
27.227159480621982
30
0
10
22.521784163603922
20
27.187943163595673
30
0
10
22.601524934552629
20
27.297574680952543
30
0
10
22.730779744904499
20
27.543910901691579
30
0
10
22.804223604528907
20
27.901625804645633
30
0
10
22.783055597879923
20
28.346847512898012
30
0
10
22.668257221037734
20
28.855008836018325
30
0
10
22.48985264520925
20
29.402109191106508
30
0
10
22.289326825947306
20
29.964621522717959
30
0
10
22.106267044350822
20
30.520007978475505
30
0
10
21.960101490045965
20
31.046900165075343
30
0
10
21.845373609242028
20
31.525704490786424
30
0
10
21.743273150226052
20
31.939565851134738
30
0
10
21.651898109019267
20
32.208116813875442
30
0
10
21.568193848227825
20
32.370447408232941
30
0
10
21.504298429931005
20
32.460870385575753
30
0
10
21.47032783962851
20
32.501632523019126
30
0
0
SPLINE
5
110
100
AcDbEntity
8
0
100
AcDbSpline
70
4
71
5
72
81
73
75
74
0
42
0.000000001
43
0.0000000001
44
0.0000000001
40
0
40
0
40
0
40
0
40
0
40
0
40
0.014285714285714285
40
0.028571428571428571
40
0.042857142857142858
40
0.057142857142857141
40
0.071428571428571425
40
0.085714285714285715
40
0.10000000000000001
40
0.1142857142857143
40
0.12857142857142859
40
0.14285714285714288
40
0.15714285714285717
40
0.17142857142857146
40
0.18571428571428575
40
0.20000000000000004
40
0.21428571428571433
40
0.22857142857142862
40
0.24285714285714291
40
0.25714285714285717
40
0.27142857142857146
40
0.28571428571428575
40
0.30000000000000004
40
0.31428571428571433
40
0.32857142857142863
40
0.34285714285714292
40
0.35714285714285721
40
0.3714285714285715
40
0.38571428571428579
40
0.40000000000000008
40
0.41428571428571437
40
0.42857142857142866
40
0.44285714285714295
40
0.45714285714285724
40
0.47142857142857153
40
0.48571428571428582
40
0.50000000000000011
40
0.51428571428571435
40
0.52857142857142858
40
0.54285714285714282
40
0.55714285714285705
40
0.57142857142857129
40
0.58571428571428552
40
0.59999999999999976
40
0.61428571428571399
40
0.62857142857142823
40
0.64285714285714246
40
0.6571428571428567
40
0.67142857142857093
40
0.68571428571428517
40
0.6999999999999994
40
0.71428571428571364
40
0.72857142857142787
40
0.74285714285714211
40
0.75714285714285634
40
0.77142857142857058
40
0.78571428571428481
40
0.79999999999999905
40
0.81428571428571328
40
0.82857142857142752
40
0.84285714285714175
40
0.85714285714285599
40
0.87142857142857022
40
0.88571428571428445
40
0.89999999999999869
40
0.91428571428571292
40
0.92857142857142716
40
0.94285714285714139
40
0.95714285714285563
40
0.97142857142856986
40
0.9857142857142841
40
1
40
1
40
1
40
1
40
1
40
1
41
1
41
1
41
1
41
1
41
1
41
1
41
1
41
1
41
1
41
1
41
1
41
1
41
1
41
1
41
1
41
1
41
1
41
1
41
1
41
1
41
1
41
1
41
1
41
1
41
1
41
1
41
1
41
1
41
1
41
1
41
1
41
1
41
1
41
1
41
1
41
1
41
1
41
1
41
1
41
1
41
1
41
1
41
1
41
1
41
1
41
1
41
1
41
1
41
1
41
1
41
1
41
1
41
1
41
1
41
1
41
1
41
1
41
1
41
1
41
1
41
1
41
1
41
1
41
1
41
1
41
1
41
1
41
1
41
1
41
1
41
1
41
1
41
1
41
1
41
1
10
19.734249078515013
20
40.962211052076768
30
0
10
19.743555992258191
20
40.980495496072436
30
0
10
19.762945457172613
20
41.015809199054459
30
0
10
19.794364598449185
20
41.0650337688825
30
0
10
19.84322625816672
20
41.136504050998006
30
0
10
19.922011059076606
20
41.295551676143639
30
0
10
20.011746234806864
20
41.566028722038425
30
0
10
20.08439107488892
20
41.938003275808889
30
0
10
20.105187996999597
20
42.370658766275049
30
0
10
20.04366041287108
20
42.805653985801683
30
0
10
19.887149994286769
20
43.183969942257562
30
0
10
19.650653028234625
20
43.459788267626507
30
0
10
19.394702162146832
20
43.619246943999826
30
0
10
19.217496809231786
20
43.684636823586224
30
0
10
19.204832769078763
20
43.695017768974267
30
0
10
19.389580036930425
20
43.69226483186825
30
0
10
19.707606673115929
20
43.704954723934691
30
0
10
20.041997371482367
20
43.750300031975939
30
0
10
20.267921248973998
20
43.835602066687933
30
0
10
20.294202443159012
20
43.959977473098498
30
0
10
20.114150531836042
20
44.115737326092002
30
0
10
19.787184339391246
20
44.291696735351849
30
0
10
19.405933452060662
20
44.476837452535271
30
0
10
19.068084271000412
20
44.663909360279163
30
0
10
18.846975946322019
20
44.852923713658967
30
0
10
18.760748786991144
20
45.055078779916272
30
0
10
18.786658188855252
20
45.287531820806528
30
0
10
18.878777088856303
20
45.567379945619422
30
0
10
18.983554603168443
20
45.906368237550453
30
0
10
19.058427762335871
20
46.304187995482131
30
0
10
19.075011781403152
20
46.749512530446324
30
0
10
19.017558881469746
20
47.223438501594018
30
0
10
18.883026635232678
20
47.702126405327377
30
0
10
18.680434880348862
20
48.159746172821585
30
0
10
18.430678676233878
20
48.571336903490277
30
0
10
18.165849859554868
20
48.915587767741854
30
0
10
17.929623374423809
20
49.177960802814084
30
0
10
17.768819636344016
20
49.350960988684697
30
0
10
17.722690446008812
20
49.433977216220875
30
0
10
17.814219291716963
20
49.433103969283849
30
0
10
18.037568730477641
20
49.361415052202076
30
0
10
18.361429202824549
20
49.236990449668163
30
0
10
18.74126357086428
20
49.079676565451898
30
0
10
19.129135269420889
20
48.908131272998588
30
0
10
19.483816040340372
20
48.736989755845514
30
0
10
19.782483389302158
20
48.573401500003015
30
0
10
20.026231499193784
20
48.415682452682432
30
0
10
20.230236096473359
20
48.257068529465592
30
0
10
20.416676340728625
20
48.088589760452422
30
0
10
20.607164549388322
20
47.902022016491721
30
0
10
20.813962322964596
20
47.693450907479502
30
0
10
21.036859913780678
20
47.464247508448672
30
0
10
21.26831172251984
20
47.218330472398037
30
0
10
21.496556951782161
20
46.960319250598786
30
0
10
21.709474023482183
20
46.693388638044802
30
0
10
21.898296552997106
20
46.417107749412089
30
0
10
22.060876423791708
20
46.125695155542886
30
0
10
22.19951038113188
20
45.810636331251608
30
0
10
22.319282034488769
20
45.462884163074577
30
0
10
22.426181298415003
20
45.075266103893938
30
0
10
22.525386460227171
20
44.644695758043952
30
0
10
22.619319294332531
20
44.174734986288655
30
0
10
22.706263369132532
20
43.677232552531407
30
0
10
22.781910342736182
20
43.169072475188557
30
0
10
22.840535345171876
20
42.669547327024262
30
0
10
22.876323789339352
20
42.197471664176895
30
0
10
22.884609882034304
20
41.768457492469651
30
0
10
22.863208336802181
20
41.391998441237341
30
0
10
22.813582023540832
20
41.068906568624904
30
0
10
22.742422102319537
20
40.787848639726036
30
0
10
22.65953534538804
20
40.529958935449997
30
0
10
22.592035726978892
20
40.32575188894463
30
0
10
22.544427889485412
20
40.166222769246851
30
0
10
22.514506616941699
20
40.056045462182325
30
0
10
22.50000033527613
20
40.000000596046455
30
0
0
SPLINE
5
111
100
AcDbEntity
8
0
100
AcDbSpline
70
4
71
5
72
56
73
50
74
0
42
0.000000001
43
0.0000000001
44
0.0000000001
40
0
40
0
40
0
40
0
40
0
40
0
40
0.022222222222222223
40
0.044444444444444446
40
0.066666666666666666
40
0.088888888888888892
40
0.11111111111111112
40
0.13333333333333333
40
0.15555555555555556
40
0.17777777777777778
40
0.20000000000000001
40
0.22222222222222224
40
0.24444444444444446
40
0.26666666666666666
40
0.28888888888888886
40
0.31111111111111106
40
0.33333333333333326
40
0.35555555555555546
40
0.37777777777777766
40
0.39999999999999986
40
0.42222222222222205
40
0.44444444444444425
40
0.46666666666666645
40
0.48888888888888865
40
0.51111111111111085
40
0.5333333333333331
40
0.55555555555555536
40
0.57777777777777761
40
0.59999999999999987
40
0.62222222222222212
40
0.64444444444444438
40
0.66666666666666663
40
0.68888888888888888
40
0.71111111111111114
40
0.73333333333333339
40
0.75555555555555565
40
0.7777777777777779
40
0.80000000000000016
40
0.82222222222222241
40
0.84444444444444466
40
0.86666666666666692
40
0.88888888888888917
40
0.91111111111111143
40
0.93333333333333368
40
0.95555555555555594
40
0.97777777777777819
40
1
40
1
40
1
40
1
40
1
40
1
41
1
41
1
41
1
41
1
41
1
41
1
41
1
41
1
41
1
41
1
41
1
41
1
41
1
41
1
41
1
41
1
41
1
41
1
41
1
41
1
41
1
41
1
41
1
41
1
41
1
41
1
41
1
41
1
41
1
41
1
41
1
41
1
41
1
41
1
41
1
41
1
41
1
41
1
41
1
41
1
41
1
41
1
41
1
41
1
41
1
41
1
41
1
41
1
41
1
41
1
10
24.393659336589849
20
37.364573885711607
30
0
10
24.485101045114792
20
37.339699509813549
30
0
10
24.669485161442086
20
37.283929885608046
30
0
10
24.950563477866883
20
37.182212768178715
30
0
10
25.335247317162185
20
37.009041977056441
30
0
10
25.837628689674421
20
36.722002186073411
30
0
10
26.367465399968285
20
36.354626751096518
30
0
10
26.92981654576603
20
35.898044924127433
30
0
10
27.527040190278417
20
35.346981789188227
30
0
10
28.157035755029373
20
34.702359419146624
30
0
10
28.81128617959984
20
33.974188226983081
30
0
10
29.473323113154251
20
33.183847759644493
30
0
10
30.116105222498931
20
32.36793980236542
30
0
10
30.70302789784655
20
31.576893960348524
30
0
10
31.193834693321449
20
30.866492848675023
30
0
10
31.549322301877854
20
30.29113822126132
30
0
10
31.736496800550981
20
29.896477559671251
30
0
10
31.733650155936711
20
29.712123840510976
30
0
10
31.535297742461367
20
29.744635590590587
30
0
10
31.157743618348942
20
29.969458100815665
30
0
10
30.642975334085119
20
30.325651666463074
30
0
10
30.048530269840139
20
30.733509404199062
30
0
10
29.438575540270939
20
31.110402553580041
30
0
10
28.874803841352342
20
31.386497690239288
30
0
10
28.406850038862565
20
31.522327726954728
30
0
10
28.064183447435585
20
31.52153600005445
30
0
10
27.84414918639883
20
31.455787291572758
30
0
10
27.711967666019071
20
31.452252562925111
30
0
10
27.622336535523914
20
31.618893723267011
30
0
10
27.539041843828787
20
31.968383957258951
30
0
10
27.447346037020193
20
32.386528892220348
30
0
10
27.344988042701427
20
32.719080897557838
30
0
10
27.237852914257136
20
32.830198340793409
30
0
10
27.133593124592672
20
32.680054790070663
30
0
10
27.036699840136421
20
32.370949866017639
30
0
10
26.94466100323444
20
32.061490692436585
30
0
10
26.845253179615209
20
31.904859451259963
30
0
10
26.71064508086079
20
31.963607397154338
30
0
10
26.508136622474339
20
32.217959496697532
30
0
10
26.215185057388098
20
32.60380274933943
30
0
10
25.836157779106088
20
33.043838937292854
30
0
10
25.408496000206583
20
33.472141233876194
30
0
10
24.983889508410773
20
33.834713334424976
30
0
10
24.615546155439084
20
34.09499141692762
30
0
10
24.341441491370247
20
34.238454854983871
30
0
10
24.172935545100252
20
34.275270382909689
30
0
10
24.092063141726911
20
34.254962783779469
30
0
10
24.031227433132646
20
34.23894432317234
30
0
10
23.985540459111235
20
34.232174596687727
30
0
10
23.961405582886528
20
34.229772968926014
30
0
0
LWPOLYLINE
5
112
100
AcDbEntity
8
0
100
AcDbPolyline
90
2
70
1
43
0.0
10
16.790980014073728
20
37.267864352211497
42
0.21406903723442178
10
17.473675260419835
20
34.064785394608165
42
-0.21406903723442161
0
LWPOLYLINE
5
113
100
AcDbEntity
8
0
100
AcDbPolyline
90
2
70
1
43
0.0
10
19.773732513801768
20
32.536181760044443
42
0.1072798211054893
10
21.470327839628489
20
32.501632523019246
42
-0.10727982110548935
0
SPLINE
5
114
100
AcDbEntity
8
0
100
AcDbSpline
70
4
71
5
72
81
73
75
74
0
42
0.000000001
43
0.0000000001
44
0.0000000001
40
0
40
0
40
0
40
0
40
0
40
0
40
0.014285714285714285
40
0.028571428571428571
40
0.042857142857142858
40
0.057142857142857141
40
0.071428571428571425
40
0.085714285714285715
40
0.10000000000000001
40
0.1142857142857143
40
0.12857142857142859
40
0.14285714285714288
40
0.15714285714285717
40
0.17142857142857146
40
0.18571428571428575
40
0.20000000000000004
40
0.21428571428571433
40
0.22857142857142862
40
0.24285714285714291
40
0.25714285714285717
40
0.27142857142857146
40
0.28571428571428575
40
0.30000000000000004
40
0.31428571428571433
40
0.32857142857142863
40
0.34285714285714292
40
0.35714285714285721
40
0.3714285714285715
40
0.38571428571428579
40
0.40000000000000008
40
0.41428571428571437
40
0.42857142857142866
40
0.44285714285714295
40
0.45714285714285724
40
0.47142857142857153
40
0.48571428571428582
40
0.50000000000000011
40
0.51428571428571435
40
0.52857142857142858
40
0.54285714285714282
40
0.55714285714285705
40
0.57142857142857129
40
0.58571428571428552
40
0.59999999999999976
40
0.61428571428571399
40
0.62857142857142823
40
0.64285714285714246
40
0.6571428571428567
40
0.67142857142857093
40
0.68571428571428517
40
0.6999999999999994
40
0.71428571428571364
40
0.72857142857142787
40
0.74285714285714211
40
0.75714285714285634
40
0.77142857142857058
40
0.78571428571428481
40
0.79999999999999905
40
0.81428571428571328
40
0.82857142857142752
40
0.84285714285714175
40
0.85714285714285599
40
0.87142857142857022
40
0.88571428571428445
40
0.89999999999999869
40
0.91428571428571292
40
0.92857142857142716
40
0.94285714285714139
40
0.95714285714285563
40
0.97142857142856986
40
0.9857142857142841
40
1
40
1
40
1
40
1
40
1
40
1
41
1
41
1
41
1
41
1
41
1
41
1
41
1
41
1
41
1
41
1
41
1
41
1
41
1
41
1
41
1
41
1
41
1
41
1
41
1
41
1
41
1
41
1
41
1
41
1
41
1
41
1
41
1
41
1
41
1
41
1
41
1
41
1
41
1
41
1
41
1
41
1
41
1
41
1
41
1
41
1
41
1
41
1
41
1
41
1
41
1
41
1
41
1
41
1
41
1
41
1
41
1
41
1
41
1
41
1
41
1
41
1
41
1
41
1
41
1
41
1
41
1
41
1
41
1
41
1
41
1
41
1
41
1
41
1
41
1
41
1
41
1
41
1
41
1
41
1
41
1
10
16.925993141852768
20
39.508502125827164
30
0
10
16.874080024221421
20
39.597098369705755
30
0
10
16.766012085751164
20
39.770640432320704
30
0
10
16.591185181115279
20
40.020002059974601
30
0
10
16.335715802682177
20
40.329298522099947
30
0
10
15.997623509647125
20
40.670836716530339
30
0
10
15.665497973437585
20
40.960844625295671
30
0
10
15.365698739242593
20
41.196004098219774
30
0
10
15.121560280952602
20
41.379459166775177
30
0
10
14.948960071908676
20
41.523714454510944
30
0
10
14.851324595843423
20
41.654596482035259
30
0
10
14.816210334639573
20
41.812050731271746
30
0
10
14.820716855135998
20
42.027808489229379
30
0
10
14.835872705669953
20
42.309253370748003
30
0
10
14.831302976144364
20
42.613457966758226
30
0
10
14.780263167874599
20
42.852504750142366
30
0
10
14.666317357937528
20
42.942892618017645
30
0
10
14.488460576531876
20
42.838797855718987
30
0
10
14.26958667035456
20
42.584067150949608
30
0
10
14.049100814312903
20
42.291298398759054
30
0
10
13.867907865259353
20
42.087749847987943
30
0
10
13.756504588749962
20
42.074026284499396
30
0
10
13.72023289453379
20
42.272238390127697
30
0
10
13.730286832417102
20
42.594013909283255
30
0
10
13.743449932987613
20
42.905450142493123
30
0
10
13.718264070561556
20
43.080057600231179
30
0
10
13.632680663503349
20
43.056743816821268
30
0
10
13.500750445914944
20
42.894451523827527
30
0
10
13.351310588699816
20
42.710240894577936
30
0
10
13.209100313168081
20
42.623586537787624
30
0
10
13.071009736097842
20
42.688908982718104
30
0
10
12.912835136543228
20
42.901072298974732
30
0
10
12.703965116769687
20
43.219715675992305
30
0
10
12.419256040314529
20
43.587038911664202
30
0
10
12.052343919908422
20
43.948561927123947
30
0
10
11.627648940723169
20
44.27186361335194
30
0
10
11.189933548574608
20
44.541834222315124
30
0
10
10.794428284003262
20
44.756492709422147
30
0
10
10.49699144835194
20
44.922689046377002
30
0
10
10.343752636077051
20
45.051722025933103
30
0
10
10.362147759660074
20
45.155345512364462
30
0
10
10.548427759574041
20
45.240764625657604
30
0
10
10.867704857421327
20
45.309283066032158
30
0
10
11.268311001965438
20
45.359122355800991
30
0
10
11.692388216509107
20
45.387146829165431
30
0
10
12.088012368847878
20
45.391032335084674
30
0
10
12.420632863731901
20
45.371243697878668
30
0
10
12.684919228620377
20
45.333106588149555
30
0
10
12.896251362743779
20
45.284260199774906
30
0
10
13.081835002275838
20
45.231943766655569
30
0
10
13.272529655081675
20
45.180631486427423
30
0
10
13.493049230308497
20
45.12882877886085
30
0
10
13.757935072521503
20
45.068843013752144
30
0
10
14.074045118812004
20
44.989934657024691
30
0
10
14.441327634490786
20
44.880555730549233
30
0
10
14.854284506224491
20
44.7310094783004
30
0
10
15.303127389593419
20
44.535811408406936
30
0
10
15.775067489233569
20
44.296503906888454
30
0
10
16.255445577578669
20
44.02038844731311
30
0
10
16.728874650795007
20
43.718757708188569
30
0
10
17.180367843918638
20
43.40531680462248
30
0
10
17.59648843528306
20
43.094514867646801
30
0
10
17.966455956807302
20
42.799950106155464
30
0
10
18.283358949150912
20
42.532665877138847
30
0
10
18.545129922554544
20
42.299670620519251
30
0
10
18.756125431638889
20
42.101903831557415
30
0
10
18.926137229110402
20
41.934540437027366
30
0
10
19.067764832215154
20
41.788764486861673
30
0
10
19.194322763756638
20
41.653093856074676
30
0
10
19.317447730484179
20
41.514886718635104
30
0
10
19.445065614705893
20
41.361765745267867
30
0
10
19.554711869014767
20
41.218795911742241
30
0
10
19.642316827949475
20
41.096653371491954
30
0
10
19.703192888041304
20
41.008196567853219
30
0
10
19.734249078515013
20
40.962211052076782
30
0
0
SPLINE
5
115
100
AcDbEntity
8
0
100
AcDbSpline
70
4
71
5
72
76
73
70
74
0
42
0.000000001
43
0.0000000001
44
0.0000000001
40
0
40
0
40
0
40
0
40
0
40
0
40
0.015384615384615385
40
0.030769230769230771
40
0.046153846153846156
40
0.061538461538461542
40
0.076923076923076927
40
0.092307692307692313
40
0.1076923076923077
40
0.12307692307692308
40
0.13846153846153847
40
0.15384615384615385
40
0.16923076923076924
40
0.18461538461538463
40
0.20000000000000001
40
0.2153846153846154
40
0.23076923076923078
40
0.24615384615384617
40
0.26153846153846155
40
0.27692307692307694
40
0.29230769230769232
40
0.30769230769230771
40
0.32307692307692309
40
0.33846153846153848
40
0.35384615384615387
40
0.36923076923076925
40
0.38461538461538464
40
0.40000000000000002
40
0.41538461538461541
40
0.43076923076923079
40
0.44615384615384618
40
0.46153846153846156
40
0.47692307692307695
40
0.49230769230769234
40
0.50769230769230766
40
0.52307692307692299
40
0.53846153846153832
40
0.55384615384615365
40
0.56923076923076898
40
0.58461538461538431
40
0.59999999999999964
40
0.61538461538461497
40
0.6307692307692303
40
0.64615384615384563
40
0.66153846153846096
40
0.67692307692307629
40
0.69230769230769162
40
0.70769230769230695
40
0.72307692307692228
40
0.73846153846153761
40
0.75384615384615294
40
0.76923076923076827
40
0.7846153846153836
40
0.79999999999999893
40
0.81538461538461426
40
0.83076923076922959
40
0.84615384615384492
40
0.86153846153846025
40
0.87692307692307558
40
0.89230769230769091
40
0.90769230769230624
40
0.92307692307692157
40
0.9384615384615369
40
0.95384615384615223
40
0.96923076923076756
40
0.98461538461538289
40
1
40
1
40
1
40
1
40
1
40
1
41
1
41
1
41
1
41
1
41
1
41
1
41
1
41
1
41
1
41
1
41
1
41
1
41
1
41
1
41
1
41
1
41
1
41
1
41
1
41
1
41
1
41
1
41
1
41
1
41
1
41
1
41
1
41
1
41
1
41
1
41
1
41
1
41
1
41
1
41
1
41
1
41
1
41
1
41
1
41
1
41
1
41
1
41
1
41
1
41
1
41
1
41
1
41
1
41
1
41
1
41
1
41
1
41
1
41
1
41
1
41
1
41
1
41
1
41
1
41
1
41
1
41
1
41
1
41
1
41
1
41
1
41
1
41
1
41
1
41
1
10
22.500000335276127
20
40.000000596046448
30
0
10
22.531053086317829
20
40.048684285106184
30
0
10
22.598425784744464
20
40.146363423265129
30
0
10
22.715287073801775
20
40.29381791260122
30
0
10
22.899646494005363
20
40.490688706243851
30
0
10
23.160387739387318
20
40.728464835397091
30
0
10
23.429998791279235
20
40.947602889106911
30
0
10
23.688716184644353
20
41.139606604464646
30
0
10
23.92353945870552
20
41.300681396137236
30
0
10
24.135070396662904
20
41.435931124546599
30
0
10
24.336206508581082
20
41.557301604505163
30
0
10
24.546731423450385
20
41.678288167506352
30
0
10
24.789339086593685
20
41.809905332460474
30
0
10
25.084767259042362
20
41.955580025690992
30
0
10
25.448246052109603
20
42.10819807271708
30
0
10
25.889540221682466
20
42.253785473047252
30
0
10
26.412414979787361
20
42.374115498620817
30
0
10
27.014325312861743
20
42.449716748521581
30
0
10
27.685979129140385
20
42.462734098429387
30
0
10
28.410989051498937
20
42.399791601752682
30
0
10
29.165366601840255
20
42.255007479639175
30
0
10
29.917323338504886
20
42.032611034245136
30
0
10
30.626269731151659
20
41.750644953802905
30
0
10
31.247173106738892
20
41.437332397913515
30
0
10
31.736167006219446
20
41.125707619403428
30
0
10
32.055808947034961
20
40.848792115182597
30
0
10
32.180327703914685
20
40.634671138019456
30
0
10
32.101279756065729
20
40.501313918482069
30
0
10
31.832150577564207
20
40.452177319972861
30
0
10
31.415778593350421
20
40.469680584304726
30
0
10
30.916352977913405
20
40.520371147145291
30
0
10
30.405643011386211
20
40.564450928867529
30
0
10
29.951486291805626
20
40.563618783907856
30
0
10
29.604558106489513
20
40.490146993442494
30
0
10
29.387655645618942
20
40.334205625614238
30
0
10
29.279463838052976
20
40.11498585196756
30
0
10
29.216256750092782
20
39.879495344376124
30
0
10
29.124183689064353
20
39.680314181821167
30
0
10
28.941916211452185
20
39.560011121390431
30
0
10
28.652759468639619
20
39.528963628498481
30
0
10
28.294009471315466
20
39.559102490479631
30
0
10
27.929021415776901
20
39.603760434584743
30
0
10
27.626472822784951
20
39.61251407639989
30
0
10
27.439016562112283
20
39.54637217980568
30
0
10
27.376735022106573
20
39.396803413402786
30
0
10
27.402519473181371
20
39.18873346177935
30
0
10
27.458123252615749
20
38.96117390028261
30
0
10
27.482896028657748
20
38.753150613350584
30
0
10
27.434611220761646
20
38.588196791066977
30
0
10
27.289839991131537
20
38.474256000877809
30
0
10
27.045121127766599
20
38.40332356910821
30
0
10
26.719125491434799
20
38.349494568522921
30
0
10
26.346800231615148
20
38.277578216291019
30
0
10
25.97050833095409
20
38.155466259556803
30
0
10
25.632069900321845
20
37.965594346524739
30
0
10
25.364672616777426
20
37.716062929605158
30
0
10
25.18425175984499
20
37.453697517699553
30
0
10
25.082766499924038
20
37.271046714008833
30
0
10
25.038018195969567
20
37.255746710359958
30
0
10
25.021547015780186
20
37.449525004076555
30
0
10
25.008019999965573
20
37.793773494405393
30
0
10
24.977798635010011
20
38.163680048234163
30
0
10
24.91848622913767
20
38.423192560897441
30
0
10
24.826400307854044
20
38.467381279692987
30
0
10
24.709102979883994
20
38.282899313486965
30
0
10
24.583739137658419
20
37.953388847584037
30
0
10
24.492791176056734
20
37.66955404256651
30
0
10
24.437369916643664
20
37.49569382052583
30
0
10
24.407112810370396
20
37.404208987603909
30
0
10
24.393657068560618
20
37.364574655701013
30
0
0
SPLINE
5
116
100
AcDbEntity
8
0
100
AcDbSpline
70
4
71
5
72
92
73
86
74
0
42
0.000000001
43
0.0000000001
44
0.0000000001
40
0.049419698689531957
40
0.049419698689531957
40
0.049419698689531957
40
0.049419698689531957
40
0.049419698689531957
40
0.049419698689531957
40
0.058823529411764705
40
0.070588235294117646
40
0.082352941176470587
40
0.094117647058823528
40
0.10588235294117647
40
0.11764705882352941
40
0.12941176470588234
40
0.14117647058823529
40
0.15294117647058825
40
0.1647058823529412
40
0.17647058823529416
40
0.18823529411764711
40
0.20000000000000007
40
0.21176470588235302
40
0.22352941176470598
40
0.23529411764705893
40
0.24705882352941189
40
0.25882352941176484
40
0.2705882352941178
40
0.28235294117647075
40
0.29411764705882371
40
0.30588235294117666
40
0.31764705882352962
40
0.32941176470588257
40
0.34117647058823553
40
0.35294117647058848
40
0.36470588235294144
40
0.37647058823529439
40
0.38823529411764734
40
0.4000000000000003
40
0.41176470588235325
40
0.42352941176470621
40
0.43529411764705916
40
0.44705882352941212
40
0.45882352941176507
40
0.47058823529411803
40
0.48235294117647098
40
0.49411764705882394
40
0.50588235294117689
40
0.51764705882352979
40
0.52941176470588269
40
0.54117647058823559
40
0.55294117647058849
40
0.56470588235294139
40
0.57647058823529429
40
0.58823529411764719
40
0.60000000000000009
40
0.61176470588235299
40
0.62352941176470589
40
0.63529411764705879
40
0.64705882352941169
40
0.65882352941176459
40
0.67058823529411749
40
0.68235294117647038
40
0.69411764705882328
40
0.70588235294117618
40
0.71764705882352908
40
0.72941176470588198
40
0.74117647058823488
40
0.75294117647058778
40
0.76470588235294068
40
0.77647058823529358
40
0.78823529411764648
40
0.79999999999999938
40
0.81176470588235228
40
0.82352941176470518
40
0.83529411764705808
40
0.84705882352941098
40
0.85882352941176388
40
0.87058823529411677
40
0.88235294117646967
40
0.89411764705882257
40
0.90588235294117547
40
0.91764705882352837
40
0.92941176470588127
40
0.94117647058823417
40
0.95294117647058707
40
0.96470588235293997
40
0.97647058823529287
40
0.98823529411764577
40
1
40
1
40
1
40
1
40
1
40
1
41
1
41
1
41
1
41
1
41
1
41
1
41
1
41
1
41
1
41
1
41
1
41
1
41
1
41
1
41
1
41
1
41
1
41
1
41
1
41
1
41
1
41
1
41
1
41
1
41
1
41
1
41
1
41
1
41
1
41
1
41
1
41
1
41
1
41
1
41
1
41
1
41
1
41
1
41
1
41
1
41
1
41
1
41
1
41
1
41
1
41
1
41
1
41
1
41
1
41
1
41
1
41
1
41
1
41
1
41
1
41
1
41
1
41
1
41
1
41
1
41
1
41
1
41
1
41
1
41
1
41
1
41
1
41
1
41
1
41
1
41
1
41
1
41
1
41
1
41
1
41
1
41
1
41
1
41
1
41
1
41
1
41
1
41
1
41
1
41
1
41
1
10
16.790980014073728
20
37.267864352211497
30
0
10
16.758745617926603
20
37.243361365866484
30
0
10
16.675403903253748
20
37.188264594049819
30
0
10
16.508656362578328
20
37.104479968362909
30
0
10
16.212593496494531
20
37.002513663839743
30
0
10
15.761421230210155
20
36.909330930325865
30
0
10
15.26748977076009
20
36.859660407343725
30
0
10
14.803794162620676
20
36.852511274586767
30
0
10
14.414353527845075
20
36.874364895395651
30
0
10
14.128968813093101
20
36.907888223275584
30
0
10
13.96001579979546
20
36.936507831854811
30
0
10
13.897372543422225
20
36.949434944690545
30
0
10
13.907553649321386
20
36.945686293112836
30
0
10
13.922346955203412
20
36.940610474565979
30
0
10
13.876460307263665
20
36.960579529884228
30
0
10
13.764317740406764
20
37.032452367929679
30
0
10
13.612466652859901
20
37.1747079018661
30
0
10
13.460184932162242
20
37.389373276805699
30
0
10
13.333145546116524
20
37.650500662913878
30
0
10
13.23276195685964
20
37.90492057823419
30
0
10
13.147798218901288
20
38.091969665450499
30
0
10
13.061140406728777
20
38.159557057764445
30
0
10
12.957863485141939
20
38.079974914088254
30
0
10
12.834374949957031
20
37.870246460103864
30
0
10
12.696980251823451
20
37.583234685442072
30
0
10
12.556626585331998
20
37.288824922299462
30
0
10
12.42475908687182
20
37.057807329182609
30
0
10
12.309092562301201
20
36.945993914480027
30
0
10
12.208501242750994
20
36.9749478641506
30
0
10
12.111381830248583
20
37.125236836114723
30
0
10
12.001049656736182
20
37.354791583098745
30
0
10
11.859500930168069
20
37.611450517590484
30
0
10
11.672043882520686
20
37.84856417398364
30
0
10
11.430930793756371
20
38.037127996371495
30
0
10
11.134373729357712
20
38.162057541250974
30
0
10
10.786036814417068
20
38.220090135547771
30
0
10
10.394352166610743
20
38.217079610875956
30
0
10
9.9719164630090003
20
38.16555826766907
30
0
10
9.5348554854262098
20
38.082192311537348
30
0
10
9.1022101673759241
20
37.985285659498416
30
0
10
8.6953060333815984
20
37.892272418321951
30
0
10
8.33583179555729
20
37.818947721615956
30
0
10
8.0439009426537211
20
37.778670503698173
30
0
10
7.8361654753982339
20
37.781599339565815
30
0
10
7.7237984902145849
20
37.833855821766022
30
0
10
7.7107763295333642
20
37.936845122212233
30
0
10
7.7913871484330377
20
38.086170692205606
30
0
10
7.9519899228656747
20
38.272771408038487
30
0
10
8.1742292007705863
20
38.484817986918422
30
0
10
8.43781481430341
20
38.709384941951107
30
0
10
8.7233706722810833
20
38.934151308121479
30
0
10
9.0155151979699664
20
39.149239964220605
30
0
10
9.3050469617572045
20
39.348538328677172
30
0
10
9.5873164831899125
20
39.528815229942261
30
0
10
9.8611602913464615
20
39.689164765448922
30
0
10
10.127636357886601
20
39.830330550141703
30
0
10
10.388806438388858
20
39.954069458831952
30
0
10
10.646593351642029
20
40.062530652731922
30
0
10
10.901379132153439
20
40.15755351968135
30
0
10
11.151466090782966
20
40.240248245820418
30
0
10
11.394501151246793
20
40.311208785507461
30
0
10
11.628459688645458
20
40.370599917220595
30
0
10
11.852887273731485
20
40.418286098617109
30
0
10
12.069842337894656
20
40.453960703651923
30
0
10
12.285457335024301
20
40.477228467730981
30
0
10
12.508101301292033
20
40.487966189644276
30
0
10
12.745744603427276
20
40.486680309159695
30
0
10
13.003195640358808
20
40.475025945550406
30
0
10
13.280283983822965
20
40.455894745413559
30
0
10
13.567148910382263
20
40.434731067415932
30
0
10
13.860597649503603
20
40.411059674568008
30
0
10
14.160568905619391
20
40.381274994068164
30
0
10
14.468669279111023
20
40.340083319887185
30
0
10
14.786023416727376
20
40.282405251797393
30
0
10
15.111349488157702
20
40.20513149204757
30
0
10
15.439083969830619
20
40.108830663094878
30
0
10
15.757085659163179
20
39.999781925961535
30
0
10
16.049869674610598
20
39.887804076837
30
0
10
16.302475573648834
20
39.783605887493252
30
0
10
16.504092882178838
20
39.696317926651112
30
0
10
16.651826441292336
20
39.630927313555148
30
0
10
16.754327267896375
20
39.585797289176384
30
0
10
16.819437837859095
20
39.557172601610404
30
0
10
16.870357799314782
20
39.534207880697501
30
0
10
16.906998891840907
20
39.517331791110891
30
0
10
16.925993141852768
20
39.508502125827164
30
0
0
ENDSEC
0
SECTION
2
OBJECTS
0
DICTIONARY
5
C
100
AcDbDictionary
3
ACAD_GROUP
350
D
3
ACAD_MLINESTYLE
350
17
0
DICTIONARY
5
D
100
AcDbDictionary
0
DICTIONARY
5
1A
330
C
100
AcDbDictionary
0
DICTIONARY
5
17
100
AcDbDictionary
0
ENDSEC
0
EOF
